<svg version="1.1" viewBox="0.0 0.0 2000.0 2000.0" fill="none" stroke="none" stroke-linecap="square" stroke-miterlimit="10" xmlns:xlink="http://www.w3.org/1999/xlink" xmlns="http://www.w3.org/2000/svg"><clipPath id="g34ea7593cc0_3_211.0"><path d="m0 0l2000.0 0l0 2000.0l-2000.0 0l0 -2000.0z" clip-rule="nonzero"/></clipPath><g clip-path="url(#g34ea7593cc0_3_211.0)"><path fill="#000000" fill-opacity="0.0" d="m0 0l2000.0 0l0 2000.0l-2000.0 0z" fill-rule="evenodd"/><path fill="#000000" fill-opacity="0.0" d="m496.68253 791.7892l0 0c115.10135 -278.02972 433.7971 -410.13037 711.8268 -295.0551l0 0c133.51465 55.26111 239.6034 161.2973 294.9281 294.78186c55.324707 133.48456 55.353394 283.4831 0.079833984 416.99762l0 0c-115.10144 278.0298 -433.79712 410.1305 -711.8268 295.05518l0 0c-278.02972 -115.07532 -410.10925 -433.74988 -295.0079 -711.77954z" fill-rule="evenodd"/><path stroke="#676784" stroke-width="1.0" stroke-linejoin="round" stroke-linecap="butt" d="m496.68253 791.7892l0 0c115.10135 -278.02972 433.7971 -410.13037 711.8268 -295.0551l0 0c133.51465 55.26111 239.6034 161.2973 294.9281 294.78186c55.324707 133.48456 55.353394 283.4831 0.079833984 416.99762l0 0c-115.10144 278.0298 -433.79712 410.1305 -711.8268 295.05518l0 0c-278.02972 -115.07532 -410.10925 -433.74988 -295.0079 -711.77954z" fill-rule="evenodd"/><path fill="#000000" fill-opacity="0.0" d="m0.18897638 1000.0l0 0c0 -552.23254 447.67294 -999.9055 999.9055 -999.9055l0 0c265.1914 0 519.52136 105.346886 707.0399 292.86554c187.51868 187.51868 292.8656 441.84857 292.8656 707.04l0 0c0 552.23254 -447.67297 999.9055 -999.9055 999.9055l0 0c-552.23254 0 -999.9055 -447.67297 -999.9055 -999.9055z" fill-rule="evenodd"/><path stroke="#676784" stroke-width="1.0" stroke-linejoin="round" stroke-linecap="butt" d="m0.18897638 1000.0l0 0c0 -552.23254 447.67294 -999.9055 999.9055 -999.9055l0 0c265.1914 0 519.52136 105.346886 707.0399 292.86554c187.51868 187.51868 292.8656 441.84857 292.8656 707.04l0 0c0 552.23254 -447.67297 999.9055 -999.9055 999.9055l0 0c-552.23254 0 -999.9055 -447.67297 -999.9055 -999.9055z" fill-rule="evenodd"/><path fill="#000000" fill-opacity="0.0" d="m535.3071 535.24603l0 0c256.79065 -256.79065 673.1377 -256.8118 929.937 -0.04724121l0 0c123.31946 123.302734 192.6012 290.54205 192.60413 464.92725c0.0029296875 174.3852 -69.27319 341.63153 -192.58838 464.94684l0 0c-256.79065 256.79065 -673.13763 256.81177 -929.937 0.04724121l0 0c-256.79935 -256.76465 -256.8064 -673.0834 -0.01574707 -929.8741z" fill-rule="evenodd"/><path stroke="#676784" stroke-width="1.0" stroke-linejoin="round" stroke-linecap="butt" d="m535.3071 535.24603l0 0c256.79065 -256.79065 673.1377 -256.8118 929.937 -0.04724121l0 0c123.31946 123.302734 192.6012 290.54205 192.60413 464.92725c0.0029296875 174.3852 -69.27319 341.63153 -192.58838 464.94684l0 0c-256.79065 256.79065 -673.13763 256.81177 -929.937 0.04724121l0 0c-256.79935 -256.76465 -256.8064 -673.0834 -0.01574707 -929.8741z" fill-rule="evenodd"/><path fill="#000000" fill-opacity="0.0" d="m728.19354 887.61334l0 0c62.169006 -150.16925 234.30316 -221.52167 384.47247 -159.37006l0 0c72.11377 29.846252 129.4143 87.11713 159.29614 159.2138c29.881714 72.09668 29.896973 153.11334 0.0423584 225.22711l0 0c-62.168945 150.16931 -234.3031 221.52173 -384.4724 159.37012l0 0c-150.16925 -62.15161 -221.50757 -234.27173 -159.33856 -384.44098z" fill-rule="evenodd"/><path stroke="#676784" stroke-width="1.0" stroke-linejoin="round" stroke-linecap="butt" d="m728.19354 887.61334l0 0c62.169006 -150.16925 234.30316 -221.52167 384.47247 -159.37006l0 0c72.11377 29.846252 129.4143 87.11713 159.29614 159.2138c29.881714 72.09668 29.896973 153.11334 0.0423584 225.22711l0 0c-62.168945 150.16931 -234.3031 221.52173 -384.4724 159.37012l0 0c-150.16925 -62.15161 -221.50757 -234.27173 -159.33856 -384.44098z" fill-rule="evenodd"/><path fill="#000000" fill-opacity="0.0" d="m840.7397 999.9917l0 0c0 -88.00891 71.34534 -159.35431 159.35431 -159.35431l0 0c42.263428 0 82.79578 16.789062 112.68054 46.67383c29.884766 29.884705 46.67383 70.417114 46.67383 112.68048l0 0c0 88.00903 -71.34546 159.35437 -159.35437 159.35437l0 0c-88.00897 0 -159.35431 -71.34534 -159.35431 -159.35437z" fill-rule="evenodd"/><path stroke="#676784" stroke-width="1.0" stroke-linejoin="round" stroke-linecap="butt" d="m840.7397 999.9917l0 0c0 -88.00891 71.34534 -159.35431 159.35431 -159.35431l0 0c42.263428 0 82.79578 16.789062 112.68054 46.67383c29.884766 29.884705 46.67383 70.417114 46.67383 112.68048l0 0c0 88.00903 -71.34546 159.35437 -159.35437 159.35437l0 0c-88.00897 0 -159.35431 -71.34534 -159.35431 -159.35437z" fill-rule="evenodd"/><path fill="#000000" fill-opacity="0.0" d="m343.75146 503.0606l0 0c62.169006 -150.16055 234.29614 -221.50592 384.45673 -159.35431l0 0c72.10962 29.846252 129.40613 87.11551 159.28497 159.20923c29.878845 72.09369 29.892456 153.10632 0.037841797 225.21594l0 0c-62.169006 150.16058 -234.29614 221.50592 -384.4567 159.35437l0 0c-150.16058 -62.15161 -221.49185 -234.26465 -159.32285 -384.42523z" fill-rule="evenodd"/><path stroke="#676784" stroke-width="1.0" stroke-linejoin="round" stroke-linecap="butt" d="m343.75146 503.0606l0 0c62.169006 -150.16055 234.29614 -221.50592 384.45673 -159.35431l0 0c72.10962 29.846252 129.40613 87.11551 159.28497 159.20923c29.878845 72.09369 29.892456 153.10632 0.037841797 225.21594l0 0c-62.169006 150.16058 -234.29614 221.50592 -384.4567 159.35437l0 0c-150.16058 -62.15161 -221.49185 -234.26465 -159.32285 -384.42523z" fill-rule="evenodd"/><path fill="#000000" fill-opacity="0.0" d="m184.22067 887.4186l0 0c62.16539 -150.15918 234.28845 -221.5069 384.4476 -159.35962l0 0c72.10901 29.844238 129.40558 87.111206 159.28516 159.203c29.879578 72.0918 29.894592 153.1029 0.04168701 225.21191l0 0c-62.165344 150.15918 -234.28842 221.50684 -384.4476 159.35962l0 0c-150.15918 -62.14734 -221.49223 -234.25574 -159.32684 -384.41492z" fill-rule="evenodd"/><path stroke="#676784" stroke-width="1.0" stroke-linejoin="round" stroke-linecap="butt" d="m184.22067 887.4186l0 0c62.16539 -150.15918 234.28845 -221.5069 384.4476 -159.35962l0 0c72.10901 29.844238 129.40558 87.111206 159.28516 159.203c29.879578 72.0918 29.894592 153.1029 0.04168701 225.21191l0 0c-62.165344 150.15918 -234.28842 221.50684 -384.4476 159.35962l0 0c-150.15918 -62.14734 -221.49223 -234.25574 -159.32684 -384.41492z" fill-rule="evenodd"/><path fill="#000000" fill-opacity="0.0" d="m1112.6964 503.0501l0 0c62.168945 -150.16055 234.29602 -221.50592 384.45667 -159.35431l0 0c72.10962 29.846252 129.40613 87.11551 159.28503 159.20923c29.878784 72.09369 29.892334 153.10632 0.037719727 225.21594l0 0c-62.168945 150.16058 -234.29602 221.50592 -384.45667 159.35437l0 0c-150.16052 -62.15161 -221.49182 -234.26465 -159.32275 -384.42523z" fill-rule="evenodd"/><path stroke="#676784" stroke-width="1.0" stroke-linejoin="round" stroke-linecap="butt" d="m1112.6964 503.0501l0 0c62.168945 -150.16055 234.29602 -221.50592 384.45667 -159.35431l0 0c72.10962 29.846252 129.40613 87.11551 159.28503 159.20923c29.878784 72.09369 29.892334 153.10632 0.037719727 225.21594l0 0c-62.168945 150.16058 -234.29602 221.50592 -384.45667 159.35437l0 0c-150.16052 -62.15161 -221.49182 -234.26465 -159.32275 -384.42523z" fill-rule="evenodd"/><path fill="#000000" fill-opacity="0.0" d="m1112.6964 1271.89l0 0c62.168945 -150.16052 234.29602 -221.50598 384.45667 -159.35437l0 0c72.10962 29.846313 129.40613 87.1156 159.28503 159.20923c29.878784 72.09375 29.892334 153.10632 0.037719727 225.21606l0 0c-62.168945 150.16052 -234.29602 221.50586 -384.45667 159.35425l0 0c-150.16052 -62.15161 -221.49182 -234.26465 -159.32275 -384.42517z" fill-rule="evenodd"/><path stroke="#676784" stroke-width="1.0" stroke-linejoin="round" stroke-linecap="butt" d="m1112.6964 1271.89l0 0c62.168945 -150.16052 234.29602 -221.50598 384.45667 -159.35437l0 0c72.10962 29.846313 129.40613 87.1156 159.28503 159.20923c29.878784 72.09375 29.892334 153.10632 0.037719727 225.21606l0 0c-62.168945 150.16052 -234.29602 221.50586 -384.45667 159.35425l0 0c-150.16052 -62.15161 -221.49182 -234.26465 -159.32275 -384.42517z" fill-rule="evenodd"/><path fill="#000000" fill-opacity="0.0" d="m343.75146 1271.9005l0 0c62.169006 -150.16052 234.29614 -221.50598 384.45673 -159.35437l0 0c72.10962 29.846313 129.40613 87.1156 159.28497 159.20923c29.878845 72.09375 29.892456 153.10632 0.037841797 225.21606l0 0c-62.169006 150.16052 -234.29614 221.50586 -384.4567 159.35425l0 0c-150.16058 -62.15161 -221.49185 -234.26465 -159.32285 -384.42517z" fill-rule="evenodd"/><path stroke="#676784" stroke-width="1.0" stroke-linejoin="round" stroke-linecap="butt" d="m343.75146 1271.9005l0 0c62.169006 -150.16052 234.29614 -221.50598 384.45673 -159.35437l0 0c72.10962 29.846313 129.40613 87.1156 159.28497 159.20923c29.878845 72.09375 29.892456 153.10632 0.037841797 225.21606l0 0c-62.169006 150.16052 -234.29614 221.50586 -384.4567 159.35425l0 0c-150.16058 -62.15161 -221.49185 -234.26465 -159.32285 -384.42517z" fill-rule="evenodd"/><path fill="#000000" fill-opacity="0.0" d="m502.85794 1431.1664l0 0c18.222748 -18.222778 47.775055 -18.215454 66.00687 0.016357422l0 0c8.755188 8.755249 13.675537 20.628174 13.67865 33.006836c0.0030517578 12.378662 -4.911438 24.249146 -13.6622925 33.0l0 0c-18.222778 18.222778 -47.775024 18.215454 -66.006836 -0.016357422l0 0c-18.231812 -18.231812 -18.239136 -47.784058 -0.01638794 -66.006836z" fill-rule="evenodd"/><path stroke="#676784" stroke-width="1.0" stroke-linejoin="round" stroke-linecap="butt" d="m502.85794 1431.1664l0 0c18.222748 -18.222778 47.775055 -18.215454 66.00687 0.016357422l0 0c8.755188 8.755249 13.675537 20.628174 13.67865 33.006836c0.0030517578 12.378662 -4.911438 24.249146 -13.6622925 33.0l0 0c-18.222778 18.222778 -47.775024 18.215454 -66.006836 -0.016357422l0 0c-18.231812 -18.231812 -18.239136 -47.784058 -0.01638794 -66.006836z" fill-rule="evenodd"/><path fill="#000000" fill-opacity="0.0" d="m549.548 1384.4878l0 0c18.222778 -18.222778 47.775024 -18.215454 66.006836 0.016357422l0 0c8.755188 8.755249 13.675598 20.628052 13.67865 33.006836c0.0030517578 12.378662 -4.911377 24.249146 -13.6622925 33.0l0 0c-18.222778 18.222778 -47.775024 18.215454 -66.006836 -0.016357422l0 0c-18.231812 -18.231812 -18.239136 -47.784058 -0.016357422 -66.006836z" fill-rule="evenodd"/><path stroke="#676784" stroke-width="1.0" stroke-linejoin="round" stroke-linecap="butt" d="m549.548 1384.4878l0 0c18.222778 -18.222778 47.775024 -18.215454 66.006836 0.016357422l0 0c8.755188 8.755249 13.675598 20.628052 13.67865 33.006836c0.0030517578 12.378662 -4.911377 24.249146 -13.6622925 33.0l0 0c-18.222778 18.222778 -47.775024 18.215454 -66.006836 -0.016357422l0 0c-18.231812 -18.231812 -18.239136 -47.784058 -0.016357422 -66.006836z" fill-rule="evenodd"/><path fill="#000000" fill-opacity="0.0" d="m596.1971 1337.8304l0 0c18.222717 -18.222656 47.775024 -18.215332 66.006836 0.016479492l0 0c8.755188 8.755127 13.675537 20.628052 13.67865 33.006714c0.0030517578 12.378662 -4.911438 24.249146 -13.6622925 33.0l0 0c-18.222778 18.222778 -47.775024 18.215454 -66.006836 -0.016357422l0 0c-18.231812 -18.231812 -18.239136 -47.784058 -0.016357422 -66.006836z" fill-rule="evenodd"/><path stroke="#676784" stroke-width="1.0" stroke-linejoin="round" stroke-linecap="butt" d="m596.1971 1337.8304l0 0c18.222717 -18.222656 47.775024 -18.215332 66.006836 0.016479492l0 0c8.755188 8.755127 13.675537 20.628052 13.67865 33.006714c0.0030517578 12.378662 -4.911438 24.249146 -13.6622925 33.0l0 0c-18.222778 18.222778 -47.775024 18.215454 -66.006836 -0.016357422l0 0c-18.231812 -18.231812 -18.239136 -47.784058 -0.016357422 -66.006836z" fill-rule="evenodd"/><path fill="#000000" fill-opacity="0.0" d="m1431.2664 1497.1912l0 0c-18.222778 -18.222778 -18.215454 -47.775024 0.016357422 -66.006836l0 0c8.755249 -8.755249 20.628174 -13.675537 33.006836 -13.678589c12.378662 -0.0030517578 24.249146 4.911377 33.0 13.662231l0 0c18.222778 18.222778 18.215454 47.775024 -0.016357422 66.006836l0 0c-18.231812 18.231812 -47.784058 18.239136 -66.006836 0.016357422z" fill-rule="evenodd"/><path stroke="#676784" stroke-width="1.0" stroke-linejoin="round" stroke-linecap="butt" d="m1431.2664 1497.1912l0 0c-18.222778 -18.222778 -18.215454 -47.775024 0.016357422 -66.006836l0 0c8.755249 -8.755249 20.628174 -13.675537 33.006836 -13.678589c12.378662 -0.0030517578 24.249146 4.911377 33.0 13.662231l0 0c18.222778 18.222778 18.215454 47.775024 -0.016357422 66.006836l0 0c-18.231812 18.231812 -47.784058 18.239136 -66.006836 0.016357422z" fill-rule="evenodd"/><path fill="#000000" fill-opacity="0.0" d="m1384.5878 1450.5012l0 0c-18.222778 -18.222778 -18.215454 -47.775146 0.016357422 -66.006836l0 0c8.755249 -8.755249 20.628052 -13.675659 33.006836 -13.678711c12.378662 -0.0030517578 24.249146 4.911377 33.0 13.662231l0 0c18.222778 18.222778 18.215454 47.775024 -0.016357422 66.006836l0 0c-18.231812 18.231812 -47.784058 18.239136 -66.006836 0.016479492z" fill-rule="evenodd"/><path stroke="#676784" stroke-width="1.0" stroke-linejoin="round" stroke-linecap="butt" d="m1384.5878 1450.5012l0 0c-18.222778 -18.222778 -18.215454 -47.775146 0.016357422 -66.006836l0 0c8.755249 -8.755249 20.628052 -13.675659 33.006836 -13.678711c12.378662 -0.0030517578 24.249146 4.911377 33.0 13.662231l0 0c18.222778 18.222778 18.215454 47.775024 -0.016357422 66.006836l0 0c-18.231812 18.231812 -47.784058 18.239136 -66.006836 0.016479492z" fill-rule="evenodd"/><path fill="#000000" fill-opacity="0.0" d="m1337.9304 1403.852l0 0c-18.222778 -18.222778 -18.215332 -47.775024 0.016479492 -66.006836l0 0c8.755127 -8.755249 20.628052 -13.675537 33.006714 -13.678589c12.378662 -0.0030517578 24.249146 4.911377 33.0 13.662231l0 0c18.222778 18.222778 18.215454 47.775024 -0.016357422 66.006836l0 0c-18.231812 18.231812 -47.784058 18.239136 -66.006836 0.016357422z" fill-rule="evenodd"/><path stroke="#676784" stroke-width="1.0" stroke-linejoin="round" stroke-linecap="butt" d="m1337.9304 1403.852l0 0c-18.222778 -18.222778 -18.215332 -47.775024 0.016479492 -66.006836l0 0c8.755127 -8.755249 20.628052 -13.675537 33.006714 -13.678589c12.378662 -0.0030517578 24.249146 4.911377 33.0 13.662231l0 0c18.222778 18.222778 18.215454 47.775024 -0.016357422 66.006836l0 0c-18.231812 18.231812 -47.784058 18.239136 -66.006836 0.016357422z" fill-rule="evenodd"/><path fill="#000000" fill-opacity="0.0" d="m1497.2896 568.8093l0 0c-18.222778 18.222717 -47.775024 18.215393 -66.006836 -0.016418457l0 0c-8.755249 -8.755188 -13.675537 -20.628113 -13.678711 -33.006775c-0.0030517578 -12.378662 4.911499 -24.249146 13.6623535 -33.00003l0 0c18.222778 -18.222748 47.775024 -18.215424 66.006836 0.01638794l0 0c18.231812 18.231812 18.239136 47.784058 0.016357422 66.006836z" fill-rule="evenodd"/><path stroke="#676784" stroke-width="1.0" stroke-linejoin="round" stroke-linecap="butt" d="m1497.2896 568.8093l0 0c-18.222778 18.222717 -47.775024 18.215393 -66.006836 -0.016418457l0 0c-8.755249 -8.755188 -13.675537 -20.628113 -13.678711 -33.006775c-0.0030517578 -12.378662 4.911499 -24.249146 13.6623535 -33.00003l0 0c18.222778 -18.222748 47.775024 -18.215424 66.006836 0.01638794l0 0c18.231812 18.231812 18.239136 47.784058 0.016357422 66.006836z" fill-rule="evenodd"/><path fill="#000000" fill-opacity="0.0" d="m1450.5995 615.4879l0 0c-18.222778 18.222778 -47.775024 18.215393 -66.006836 -0.016357422l0 0c-8.755249 -8.755249 -13.675537 -20.628174 -13.678589 -33.006836c-0.0030517578 -12.378662 4.911377 -24.249146 13.662231 -33.0l0 0c18.222778 -18.222778 47.775024 -18.215454 66.006836 0.016357422l0 0c18.231812 18.231812 18.239136 47.784058 0.016357422 66.006836z" fill-rule="evenodd"/><path stroke="#676784" stroke-width="1.0" stroke-linejoin="round" stroke-linecap="butt" d="m1450.5995 615.4879l0 0c-18.222778 18.222778 -47.775024 18.215393 -66.006836 -0.016357422l0 0c-8.755249 -8.755249 -13.675537 -20.628174 -13.678589 -33.006836c-0.0030517578 -12.378662 4.911377 -24.249146 13.662231 -33.0l0 0c18.222778 -18.222778 47.775024 -18.215454 66.006836 0.016357422l0 0c18.231812 18.231812 18.239136 47.784058 0.016357422 66.006836z" fill-rule="evenodd"/><path fill="#000000" fill-opacity="0.0" d="m1403.9504 662.1452l0 0c-18.222778 18.222717 -47.775024 18.215393 -66.006836 -0.016418457l0 0c-8.755249 -8.755188 -13.675537 -20.628113 -13.678711 -33.006775c-0.0030517578 -12.378723 4.911499 -24.249146 13.6623535 -33.00006l0 0c18.222778 -18.222717 47.775024 -18.215393 66.006836 0.016418457l0 0c18.231812 18.231812 18.239136 47.784058 0.016357422 66.006836z" fill-rule="evenodd"/><path stroke="#676784" stroke-width="1.0" stroke-linejoin="round" stroke-linecap="butt" d="m1403.9504 662.1452l0 0c-18.222778 18.222717 -47.775024 18.215393 -66.006836 -0.016418457l0 0c-8.755249 -8.755188 -13.675537 -20.628113 -13.678711 -33.006775c-0.0030517578 -12.378723 4.911499 -24.249146 13.6623535 -33.00006l0 0c18.222778 -18.222717 47.775024 -18.215393 66.006836 0.016418457l0 0c18.231812 18.231812 18.239136 47.784058 0.016357422 66.006836z" fill-rule="evenodd"/><path fill="#000000" fill-opacity="0.0" d="m568.88116 502.7845l0 0c18.222778 18.222778 18.215454 47.775024 -0.016357422 66.006836l0 0c-8.755249 8.755188 -20.628174 13.675598 -33.006836 13.67865c-12.378662 0.0030517578 -24.249146 -4.911377 -33.00003 -13.6622925l0 0c-18.222748 -18.222778 -18.215424 -47.775024 0.01638794 -66.006805l0 0c18.231812 -18.231812 47.784058 -18.239136 66.006836 -0.01638794z" fill-rule="evenodd"/><path stroke="#676784" stroke-width="1.0" stroke-linejoin="round" stroke-linecap="butt" d="m568.88116 502.7845l0 0c18.222778 18.222778 18.215454 47.775024 -0.016357422 66.006836l0 0c-8.755249 8.755188 -20.628174 13.675598 -33.006836 13.67865c-12.378662 0.0030517578 -24.249146 -4.911377 -33.00003 -13.6622925l0 0c-18.222748 -18.222778 -18.215424 -47.775024 0.01638794 -66.006805l0 0c18.231812 -18.231812 47.784058 -18.239136 66.006836 -0.01638794z" fill-rule="evenodd"/><path fill="#000000" fill-opacity="0.0" d="m615.55975 549.4745l0 0c18.222778 18.222778 18.215454 47.775024 -0.016357422 66.006836l0 0c-8.755249 8.755249 -20.628174 13.675598 -33.006836 13.67865c-12.378662 0.003112793 -24.249146 -4.911377 -33.0 -13.662231l0 0c-18.222778 -18.222778 -18.215454 -47.775085 0.016357422 -66.006836l0 0c18.231812 -18.231812 47.784058 -18.239136 66.006836 -0.016418457z" fill-rule="evenodd"/><path stroke="#676784" stroke-width="1.0" stroke-linejoin="round" stroke-linecap="butt" d="m615.55975 549.4745l0 0c18.222778 18.222778 18.215454 47.775024 -0.016357422 66.006836l0 0c-8.755249 8.755249 -20.628174 13.675598 -33.006836 13.67865c-12.378662 0.003112793 -24.249146 -4.911377 -33.0 -13.662231l0 0c-18.222778 -18.222778 -18.215454 -47.775085 0.016357422 -66.006836l0 0c18.231812 -18.231812 47.784058 -18.239136 66.006836 -0.016418457z" fill-rule="evenodd"/><path fill="#000000" fill-opacity="0.0" d="m662.21704 596.1236l0 0c18.222717 18.222778 18.215393 47.775024 -0.016418457 66.006836l0 0c-8.755188 8.755188 -20.628113 13.675598 -33.006775 13.67865c-12.378662 0.0030517578 -24.249146 -4.911377 -33.0 -13.6622925l0 0c-18.222778 -18.222778 -18.215454 -47.775024 0.016357422 -66.006836l0 0c18.231812 -18.231812 47.784058 -18.239136 66.006836 -0.016357422z" fill-rule="evenodd"/><path stroke="#676784" stroke-width="1.0" stroke-linejoin="round" stroke-linecap="butt" d="m662.21704 596.1236l0 0c18.222717 18.222778 18.215393 47.775024 -0.016418457 66.006836l0 0c-8.755188 8.755188 -20.628113 13.675598 -33.006775 13.67865c-12.378662 0.0030517578 -24.249146 -4.911377 -33.0 -13.6622925l0 0c-18.222778 -18.222778 -18.215454 -47.775024 0.016357422 -66.006836l0 0c18.231812 -18.231812 47.784058 -18.239136 66.006836 -0.016357422z" fill-rule="evenodd"/><path fill="#000000" fill-opacity="0.0" d="m184.22067 1431.4045l0 0c62.16539 -150.15918 234.28845 -221.50684 384.4476 -159.35962l0 0c72.10901 29.844238 129.40558 87.111206 159.28516 159.203c29.879578 72.0918 29.894592 153.1029 0.04168701 225.21191l0 0c-62.165344 150.15918 -234.28842 221.50684 -384.4476 159.35962l0 0c-150.15918 -62.14734 -221.49223 -234.25574 -159.32684 -384.41492z" fill-rule="evenodd"/><path stroke="#676784" stroke-width="1.0" stroke-linejoin="round" stroke-linecap="butt" d="m184.22067 1431.4045l0 0c62.16539 -150.15918 234.28845 -221.50684 384.4476 -159.35962l0 0c72.10901 29.844238 129.40558 87.111206 159.28516 159.203c29.879578 72.0918 29.894592 153.1029 0.04168701 225.21191l0 0c-62.165344 150.15918 -234.28842 221.50684 -384.4476 159.35962l0 0c-150.15918 -62.14734 -221.49223 -234.25574 -159.32684 -384.41492z" fill-rule="evenodd"/><path fill="#000000" fill-opacity="0.0" d="m728.1616 1431.4045l0 0c62.165405 -150.15918 234.28845 -221.50684 384.44763 -159.35962l0 0c72.10901 29.844238 129.40552 87.111206 159.28516 159.203c29.879517 72.0918 29.894531 153.1029 0.041625977 225.21191l0 0c-62.165405 150.15918 -234.28845 221.50684 -384.44757 159.35962l0 0c-150.15918 -62.14734 -221.49225 -234.25574 -159.32684 -384.41492z" fill-rule="evenodd"/><path stroke="#676784" stroke-width="1.0" stroke-linejoin="round" stroke-linecap="butt" d="m728.1616 1431.4045l0 0c62.165405 -150.15918 234.28845 -221.50684 384.44763 -159.35962l0 0c72.10901 29.844238 129.40552 87.111206 159.28516 159.203c29.879517 72.0918 29.894531 153.1029 0.041625977 225.21191l0 0c-62.165405 150.15918 -234.28845 221.50684 -384.44757 159.35962l0 0c-150.15918 -62.14734 -221.49225 -234.25574 -159.32684 -384.41492z" fill-rule="evenodd"/><path fill="#000000" fill-opacity="0.0" d="m1272.0043 1431.4045l0 0c62.165405 -150.15918 234.28845 -221.50684 384.44763 -159.35962l0 0c72.10901 29.844238 129.40564 87.111206 159.28516 159.203c29.879639 72.0918 29.894531 153.1029 0.041748047 225.21191l0 0c-62.165405 150.15918 -234.28845 221.50684 -384.44763 159.35962l0 0c-150.15918 -62.14734 -221.49231 -234.25574 -159.3269 -384.41492z" fill-rule="evenodd"/><path stroke="#676784" stroke-width="1.0" stroke-linejoin="round" stroke-linecap="butt" d="m1272.0043 1431.4045l0 0c62.165405 -150.15918 234.28845 -221.50684 384.44763 -159.35962l0 0c72.10901 29.844238 129.40564 87.111206 159.28516 159.203c29.879639 72.0918 29.894531 153.1029 0.041748047 225.21191l0 0c-62.165405 150.15918 -234.28845 221.50684 -384.44763 159.35962l0 0c-150.15918 -62.14734 -221.49231 -234.25574 -159.3269 -384.41492z" fill-rule="evenodd"/><path fill="#000000" fill-opacity="0.0" d="m1272.0043 887.56616l0 0c62.165405 -150.15918 234.28845 -221.5069 384.44763 -159.35962l0 0c72.10901 29.844238 129.40564 87.11127 159.28516 159.203c29.879639 72.0918 29.894531 153.1029 0.041748047 225.21191l0 0c-62.165405 150.15918 -234.28845 221.50684 -384.44763 159.35962l0 0c-150.15918 -62.14734 -221.49231 -234.25574 -159.3269 -384.41492z" fill-rule="evenodd"/><path stroke="#676784" stroke-width="1.0" stroke-linejoin="round" stroke-linecap="butt" d="m1272.0043 887.56616l0 0c62.165405 -150.15918 234.28845 -221.5069 384.44763 -159.35962l0 0c72.10901 29.844238 129.40564 87.11127 159.28516 159.203c29.879639 72.0918 29.894531 153.1029 0.041748047 225.21191l0 0c-62.165405 150.15918 -234.28845 221.50684 -384.44763 159.35962l0 0c-150.15918 -62.14734 -221.49231 -234.25574 -159.3269 -384.41492z" fill-rule="evenodd"/><path fill="#000000" fill-opacity="0.0" d="m1272.0043 343.5174l0 0c62.165405 -150.15916 234.28845 -221.50688 384.44763 -159.35957l0 0c72.10901 29.844193 129.40564 87.11122 159.28516 159.20299c29.879639 72.09177 29.894531 153.1029 0.041748047 225.21188l0 0c-62.165405 150.15918 -234.28845 221.5069 -384.44763 159.35962l0 0c-150.15918 -62.14734 -221.49231 -234.25574 -159.3269 -384.41492z" fill-rule="evenodd"/><path stroke="#676784" stroke-width="1.0" stroke-linejoin="round" stroke-linecap="butt" d="m1272.0043 343.5174l0 0c62.165405 -150.15916 234.28845 -221.50688 384.44763 -159.35957l0 0c72.10901 29.844193 129.40564 87.11122 159.28516 159.20299c29.879639 72.09177 29.894531 153.1029 0.041748047 225.21188l0 0c-62.165405 150.15918 -234.28845 221.5069 -384.44763 159.35962l0 0c-150.15918 -62.14734 -221.49231 -234.25574 -159.3269 -384.41492z" fill-rule="evenodd"/><path fill="#000000" fill-opacity="0.0" d="m727.8341 343.5174l0 0c62.165405 -150.15916 234.28845 -221.50688 384.44763 -159.35957l0 0c72.10901 29.844193 129.40552 87.11122 159.28516 159.20299c29.879517 72.09177 29.894531 153.1029 0.041625977 225.21188l0 0c-62.165283 150.15918 -234.28845 221.5069 -384.44757 159.35962l0 0c-150.15918 -62.14734 -221.49225 -234.25574 -159.32684 -384.41492z" fill-rule="evenodd"/><path stroke="#676784" stroke-width="1.0" stroke-linejoin="round" stroke-linecap="butt" d="m727.8341 343.5174l0 0c62.165405 -150.15916 234.28845 -221.50688 384.44763 -159.35957l0 0c72.10901 29.844193 129.40552 87.11122 159.28516 159.20299c29.879517 72.09177 29.894531 153.1029 0.041625977 225.21188l0 0c-62.165283 150.15918 -234.28845 221.5069 -384.44757 159.35962l0 0c-150.15918 -62.14734 -221.49225 -234.25574 -159.32684 -384.41492z" fill-rule="evenodd"/><path fill="#000000" fill-opacity="0.0" d="m343.35147 184.2503l0 0c150.10492 -62.27391 322.272 8.934509 384.54587 159.04846l0 0c29.90503 72.08728 29.950317 153.10175 0.1260376 225.22113c-29.82428 72.119446 -87.075195 129.43616 -159.15808 159.34113l0 0c-150.10492 62.273926 -322.27197 -8.934509 -384.5459 -159.04846l0 0c-62.27391 -150.11395 8.927185 -322.28833 159.03207 -384.56226z" fill-rule="evenodd"/><path stroke="#676784" stroke-width="1.0" stroke-linejoin="round" stroke-linecap="butt" d="m343.35147 184.2503l0 0c150.10492 -62.27391 322.272 8.934509 384.54587 159.04846l0 0c29.90503 72.08728 29.950317 153.10175 0.1260376 225.22113c-29.82428 72.119446 -87.075195 129.43616 -159.15808 159.34113l0 0c-150.10492 62.273926 -322.27197 -8.934509 -384.5459 -159.04846l0 0c-62.27391 -150.11395 8.927185 -322.28833 159.03207 -384.56226z" fill-rule="evenodd"/><path fill="#000000" fill-opacity="0.0" d="m953.3638 456.05618l0 0c0 -25.774109 20.901367 -46.668182 46.68457 -46.668182l0 0c12.38147 0 24.25586 4.916809 33.010986 13.668793c8.755005 8.751984 13.673584 20.622223 13.673584 32.99939l0 0c0 25.77414 -20.901367 46.668213 -46.68457 46.668213l0 0c-25.783203 0 -46.68457 -20.894073 -46.68457 -46.668213z" fill-rule="evenodd"/><path stroke="#676784" stroke-width="1.0" stroke-linejoin="round" stroke-linecap="butt" d="m953.3638 456.05618l0 0c0 -25.774109 20.901367 -46.668182 46.68457 -46.668182l0 0c12.38147 0 24.25586 4.916809 33.010986 13.668793c8.755005 8.751984 13.673584 20.622223 13.673584 32.99939l0 0c0 25.77414 -20.901367 46.668213 -46.68457 46.668213l0 0c-25.783203 0 -46.68457 -20.894073 -46.68457 -46.668213z" fill-rule="evenodd"/><path fill="#000000" fill-opacity="0.0" d="m409.42282 999.9617l0 0c0 -25.77417 20.901398 -46.668213 46.68457 -46.668213l0 0c12.3815 0 24.25589 4.916809 33.010956 13.668823c8.755066 8.751953 13.673584 20.622192 13.673584 32.99939l0 0c0 25.77417 -20.901367 46.668213 -46.68454 46.668213l0 0c-25.783173 0 -46.68457 -20.894043 -46.68457 -46.668213z" fill-rule="evenodd"/><path stroke="#676784" stroke-width="1.0" stroke-linejoin="round" stroke-linecap="butt" d="m409.42282 999.9617l0 0c0 -25.77417 20.901398 -46.668213 46.68457 -46.668213l0 0c12.3815 0 24.25589 4.916809 33.010956 13.668823c8.755066 8.751953 13.673584 20.622192 13.673584 32.99939l0 0c0 25.77417 -20.901367 46.668213 -46.68454 46.668213l0 0c-25.783173 0 -46.68457 -20.894043 -46.68457 -46.668213z" fill-rule="evenodd"/><path fill="#000000" fill-opacity="0.0" d="m1497.3047 999.9617l0 0c0 -25.77417 20.901367 -46.668213 46.68457 -46.668213l0 0c12.38147 0 24.25586 4.916809 33.010986 13.668823c8.755005 8.751953 13.673584 20.622192 13.673584 32.99939l0 0c0 25.77417 -20.901367 46.668213 -46.68457 46.668213l0 0c-25.783203 0 -46.68457 -20.894043 -46.68457 -46.668213z" fill-rule="evenodd"/><path stroke="#676784" stroke-width="1.0" stroke-linejoin="round" stroke-linecap="butt" d="m1497.3047 999.9617l0 0c0 -25.77417 20.901367 -46.668213 46.68457 -46.668213l0 0c12.38147 0 24.25586 4.916809 33.010986 13.668823c8.755005 8.751953 13.673584 20.622192 13.673584 32.99939l0 0c0 25.77417 -20.901367 46.668213 -46.68457 46.668213l0 0c-25.783203 0 -46.68457 -20.894043 -46.68457 -46.668213z" fill-rule="evenodd"/><path fill="#000000" fill-opacity="0.0" d="m854.3202 920.2944l0 0c-18.222778 -18.222717 -18.215454 -47.775024 0.016357422 -66.006836l0 0c8.755188 -8.755188 20.628113 -13.675537 33.006775 -13.67865c12.378723 -0.0030517578 24.249146 4.911438 33.00006 13.6622925l0 0c18.222778 18.222778 18.215393 47.775024 -0.016357422 66.006836l0 0c-18.231812 18.231812 -47.78412 18.239136 -66.006836 0.016357422z" fill-rule="evenodd"/><path stroke="#676784" stroke-width="1.0" stroke-linejoin="round" stroke-linecap="butt" d="m854.3202 920.2944l0 0c-18.222778 -18.222717 -18.215454 -47.775024 0.016357422 -66.006836l0 0c8.755188 -8.755188 20.628113 -13.675537 33.006775 -13.67865c12.378723 -0.0030517578 24.249146 4.911438 33.00006 13.6622925l0 0c18.222778 18.222778 18.215393 47.775024 -0.016357422 66.006836l0 0c-18.231812 18.231812 -47.78412 18.239136 -66.006836 0.016357422z" fill-rule="evenodd"/><path fill="#000000" fill-opacity="0.0" d="m1079.703 1145.6472l0 0c-18.222778 -18.222778 -18.215454 -47.775024 0.016357422 -66.006836l0 0c8.755249 -8.755249 20.628052 -13.675659 33.006836 -13.678711c12.378662 -0.0030517578 24.249146 4.911377 33.0 13.662231l0 0c18.222778 18.222778 18.215454 47.775146 -0.016357422 66.006836l0 0c-18.231812 18.231812 -47.78418 18.239136 -66.006836 0.016479492z" fill-rule="evenodd"/><path stroke="#676784" stroke-width="1.0" stroke-linejoin="round" stroke-linecap="butt" d="m1079.703 1145.6472l0 0c-18.222778 -18.222778 -18.215454 -47.775024 0.016357422 -66.006836l0 0c8.755249 -8.755249 20.628052 -13.675659 33.006836 -13.678711c12.378662 -0.0030517578 24.249146 4.911377 33.0 13.662231l0 0c18.222778 18.222778 18.215454 47.775146 -0.016357422 66.006836l0 0c-18.231812 18.231812 -47.78418 18.239136 -66.006836 0.016479492z" fill-rule="evenodd"/><path fill="#000000" fill-opacity="0.0" d="m953.3638 390.0712l0 0c0 -25.77414 20.901367 -46.668182 46.68457 -46.668182l0 0c12.38147 0 24.25586 4.916809 33.010986 13.668793c8.755005 8.751984 13.673584 20.622223 13.673584 32.99939l0 0c0 25.77414 -20.901367 46.668182 -46.68457 46.668182l0 0c-25.783203 0 -46.68457 -20.894043 -46.68457 -46.668182z" fill-rule="evenodd"/><path stroke="#676784" stroke-width="1.0" stroke-linejoin="round" stroke-linecap="butt" d="m953.3638 390.0712l0 0c0 -25.77414 20.901367 -46.668182 46.68457 -46.668182l0 0c12.38147 0 24.25586 4.916809 33.010986 13.668793c8.755005 8.751984 13.673584 20.622223 13.673584 32.99939l0 0c0 25.77414 -20.901367 46.668182 -46.68457 46.668182l0 0c-25.783203 0 -46.68457 -20.894043 -46.68457 -46.668182z" fill-rule="evenodd"/><path fill="#000000" fill-opacity="0.0" d="m953.3638 522.033l0 0c0 -25.77414 20.901367 -46.668213 46.68457 -46.668213l0 0c12.38147 0 24.25586 4.916809 33.010986 13.668793c8.755005 8.751984 13.673584 20.622223 13.673584 32.99942l0 0c0 25.774109 -20.901367 46.66815 -46.68457 46.66815l0 0c-25.783203 0 -46.68457 -20.894043 -46.68457 -46.66815z" fill-rule="evenodd"/><path stroke="#676784" stroke-width="1.0" stroke-linejoin="round" stroke-linecap="butt" d="m953.3638 522.033l0 0c0 -25.77414 20.901367 -46.668213 46.68457 -46.668213l0 0c12.38147 0 24.25586 4.916809 33.010986 13.668793c8.755005 8.751984 13.673584 20.622223 13.673584 32.99942l0 0c0 25.774109 -20.901367 46.66815 -46.68457 46.66815l0 0c-25.783203 0 -46.68457 -20.894043 -46.68457 -46.66815z" fill-rule="evenodd"/><path fill="#000000" fill-opacity="0.0" d="m1563.2952 999.9617l0 0c0 -25.77417 20.901367 -46.668213 46.68457 -46.668213l0 0c12.38147 0 24.25586 4.916809 33.010986 13.668823c8.755005 8.751953 13.673584 20.622192 13.673584 32.99939l0 0c0 25.77417 -20.901367 46.668213 -46.68457 46.668213l0 0c-25.783203 0 -46.68457 -20.894043 -46.68457 -46.668213z" fill-rule="evenodd"/><path stroke="#676784" stroke-width="1.0" stroke-linejoin="round" stroke-linecap="butt" d="m1563.2952 999.9617l0 0c0 -25.77417 20.901367 -46.668213 46.68457 -46.668213l0 0c12.38147 0 24.25586 4.916809 33.010986 13.668823c8.755005 8.751953 13.673584 20.622192 13.673584 32.99939l0 0c0 25.77417 -20.901367 46.668213 -46.68457 46.668213l0 0c-25.783203 0 -46.68457 -20.894043 -46.68457 -46.668213z" fill-rule="evenodd"/><path fill="#000000" fill-opacity="0.0" d="m1431.3142 999.9617l0 0c0 -25.77417 20.901367 -46.668213 46.68457 -46.668213l0 0c12.381592 0 24.255981 4.916809 33.010986 13.668823c8.755005 8.751953 13.673584 20.622192 13.673584 32.99939l0 0c0 25.77417 -20.901367 46.668213 -46.68457 46.668213l0 0c-25.783203 0 -46.68457 -20.894043 -46.68457 -46.668213z" fill-rule="evenodd"/><path stroke="#676784" stroke-width="1.0" stroke-linejoin="round" stroke-linecap="butt" d="m1431.3142 999.9617l0 0c0 -25.77417 20.901367 -46.668213 46.68457 -46.668213l0 0c12.381592 0 24.255981 4.916809 33.010986 13.668823c8.755005 8.751953 13.673584 20.622192 13.673584 32.99939l0 0c0 25.77417 -20.901367 46.668213 -46.68457 46.668213l0 0c-25.783203 0 -46.68457 -20.894043 -46.68457 -46.668213z" fill-rule="evenodd"/><path fill="#000000" fill-opacity="0.0" d="m343.48965 999.9617l0 0c0 -25.77417 20.901398 -46.668213 46.68457 -46.668213l0 0c12.381531 0 24.25592 4.916809 33.010986 13.668823c8.755035 8.751953 13.673584 20.622192 13.673584 32.99939l0 0c0 25.77417 -20.901398 46.668213 -46.68457 46.668213l0 0c-25.783173 0 -46.68457 -20.894043 -46.68457 -46.668213z" fill-rule="evenodd"/><path stroke="#676784" stroke-width="1.0" stroke-linejoin="round" stroke-linecap="butt" d="m343.48965 999.9617l0 0c0 -25.77417 20.901398 -46.668213 46.68457 -46.668213l0 0c12.381531 0 24.25592 4.916809 33.010986 13.668823c8.755035 8.751953 13.673584 20.622192 13.673584 32.99939l0 0c0 25.77417 -20.901398 46.668213 -46.68457 46.668213l0 0c-25.783173 0 -46.68457 -20.894043 -46.68457 -46.668213z" fill-rule="evenodd"/><path fill="#000000" fill-opacity="0.0" d="m475.41327 999.9617l0 0c0 -25.77417 20.901398 -46.668213 46.68457 -46.668213l0 0c12.381531 0 24.25592 4.916809 33.010986 13.668823c8.755005 8.751953 13.673584 20.622192 13.673584 32.99939l0 0c0 25.77417 -20.901428 46.668213 -46.68457 46.668213l0 0c-25.783173 0 -46.68457 -20.894043 -46.68457 -46.668213z" fill-rule="evenodd"/><path stroke="#676784" stroke-width="1.0" stroke-linejoin="round" stroke-linecap="butt" d="m475.41327 999.9617l0 0c0 -25.77417 20.901398 -46.668213 46.68457 -46.668213l0 0c12.381531 0 24.25592 4.916809 33.010986 13.668823c8.755005 8.751953 13.673584 20.622192 13.673584 32.99939l0 0c0 25.77417 -20.901428 46.668213 -46.68457 46.668213l0 0c-25.783173 0 -46.68457 -20.894043 -46.68457 -46.668213z" fill-rule="evenodd"/><path fill="#000000" fill-opacity="0.0" d="m953.3638 1477.9517l0 0c0 -25.774048 20.901367 -46.66809 46.68457 -46.66809l0 0c12.38147 0 24.25586 4.916748 33.010986 13.668701c8.755005 8.752075 13.673584 20.622314 13.673584 32.99939l0 0c0 25.77417 -20.901367 46.668213 -46.68457 46.668213l0 0c-25.783203 0 -46.68457 -20.894043 -46.68457 -46.668213z" fill-rule="evenodd"/><path stroke="#676784" stroke-width="1.0" stroke-linejoin="round" stroke-linecap="butt" d="m953.3638 1477.9517l0 0c0 -25.774048 20.901367 -46.66809 46.68457 -46.66809l0 0c12.38147 0 24.25586 4.916748 33.010986 13.668701c8.755005 8.752075 13.673584 20.622314 13.673584 32.99939l0 0c0 25.77417 -20.901367 46.668213 -46.68457 46.668213l0 0c-25.783203 0 -46.68457 -20.894043 -46.68457 -46.668213z" fill-rule="evenodd"/><path fill="#000000" fill-opacity="0.0" d="m953.3638 1609.9136l0 0c0 -25.77417 20.901367 -46.668213 46.68457 -46.668213l0 0c12.38147 0 24.25586 4.916748 33.010986 13.668823c8.755005 8.751953 13.673584 20.622192 13.673584 32.99939l0 0c0 25.774048 -20.901367 46.66809 -46.68457 46.66809l0 0c-25.783203 0 -46.68457 -20.894043 -46.68457 -46.66809z" fill-rule="evenodd"/><path stroke="#676784" stroke-width="1.0" stroke-linejoin="round" stroke-linecap="butt" d="m953.3638 1609.9136l0 0c0 -25.77417 20.901367 -46.668213 46.68457 -46.668213l0 0c12.38147 0 24.25586 4.916748 33.010986 13.668823c8.755005 8.751953 13.673584 20.622192 13.673584 32.99939l0 0c0 25.774048 -20.901367 46.66809 -46.68457 46.66809l0 0c-25.783203 0 -46.68457 -20.894043 -46.68457 -46.66809z" fill-rule="evenodd"/><path fill="#000000" fill-opacity="0.0" d="m953.3638 1543.9368l0 0c0 -25.77417 20.901367 -46.668213 46.68457 -46.668213l0 0c12.38147 0 24.25586 4.916748 33.010986 13.668701c8.755005 8.752075 13.673584 20.622314 13.673584 32.99951l0 0c0 25.774048 -20.901367 46.66809 -46.68457 46.66809l0 0c-25.783203 0 -46.68457 -20.894043 -46.68457 -46.66809z" fill-rule="evenodd"/><path stroke="#676784" stroke-width="1.0" stroke-linejoin="round" stroke-linecap="butt" d="m953.3638 1543.9368l0 0c0 -25.77417 20.901367 -46.668213 46.68457 -46.668213l0 0c12.38147 0 24.25586 4.916748 33.010986 13.668701c8.755005 8.752075 13.673584 20.622314 13.673584 32.99951l0 0c0 25.774048 -20.901367 46.66809 -46.68457 46.66809l0 0c-25.783203 0 -46.68457 -20.894043 -46.68457 -46.66809z" fill-rule="evenodd"/><path fill="#000000" fill-opacity="0.0" d="m162.38303 456.07898l1675.811 0" fill-rule="evenodd"/><path stroke="#676784" stroke-width="1.0" stroke-linejoin="round" stroke-linecap="butt" d="m162.38303 456.07898l1675.811 0" fill-rule="evenodd"/><path fill="#000000" fill-opacity="0.0" d="m293.26773 293.19684l1413.9843 1413.9844" fill-rule="evenodd"/><path stroke="#676784" stroke-width="1.0" stroke-linejoin="round" stroke-linecap="butt" d="m293.26773 293.19684l1413.9843 1413.9844" fill-rule="evenodd"/><path fill="#000000" fill-opacity="0.0" d="m293.12598 1706.9948l1414.0472 -1414.0472" fill-rule="evenodd"/><path stroke="#676784" stroke-width="1.0" stroke-linejoin="round" stroke-linecap="butt" d="m293.12598 1706.9948l1414.0472 -1414.0472" fill-rule="evenodd"/><path fill="#000000" fill-opacity="0.0" d="m161.99 1543.9374l1676.252 0" fill-rule="evenodd"/><path stroke="#676784" stroke-width="1.0" stroke-linejoin="round" stroke-linecap="butt" d="m161.99 1543.9374l1676.252 0" fill-rule="evenodd"/><path fill="#000000" fill-opacity="0.0" d="m456.1298 161.79181l0 1676.8188" fill-rule="evenodd"/><path stroke="#676784" stroke-width="1.0" stroke-linejoin="round" stroke-linecap="butt" d="m456.1298 161.79181l0 1676.8188" fill-rule="evenodd"/><path fill="#000000" fill-opacity="0.0" d="m1544.0592 161.79181l0 1676.8188" fill-rule="evenodd"/><path stroke="#676784" stroke-width="1.0" stroke-linejoin="round" stroke-linecap="butt" d="m1544.0592 161.79181l0 1676.8188" fill-rule="evenodd"/><path fill="#000000" fill-opacity="0.0" d="m0.18897638 1000.0l1999.811 0" fill-rule="evenodd"/><path stroke="#676784" stroke-width="1.0" stroke-linejoin="round" stroke-linecap="butt" d="m0.18897638 1000.0l1999.811 0" fill-rule="evenodd"/><path fill="#000000" fill-opacity="0.0" d="m1000.0945 1999.9055l0 -1999.811" fill-rule="evenodd"/><path stroke="#676784" stroke-width="1.0" stroke-linejoin="round" stroke-linecap="butt" d="m1000.0945 1999.9055l0 -1999.811" fill-rule="evenodd"/><path fill="#000000" fill-opacity="0.0" d="m442.41653 488.85645l0 0c0 -25.770386 20.898071 -46.661407 46.677155 -46.661407l0 0c12.379547 0 24.252075 4.9160767 33.005737 13.666809c8.753662 8.750702 13.671448 20.619232 13.671448 32.9946l0 0c0 25.770386 -20.898071 46.661438 -46.677185 46.661438l0 0c-25.779083 0 -46.677155 -20.891052 -46.677155 -46.661438z" fill-rule="evenodd"/><path stroke="#676784" stroke-width="1.0" stroke-linejoin="round" stroke-linecap="butt" d="m442.41653 488.85645l0 0c0 -25.770386 20.898071 -46.661407 46.677155 -46.661407l0 0c12.379547 0 24.252075 4.9160767 33.005737 13.666809c8.753662 8.750702 13.671448 20.619232 13.671448 32.9946l0 0c0 25.770386 -20.898071 46.661438 -46.677185 46.661438l0 0c-25.779083 0 -46.677155 -20.891052 -46.677155 -46.661438z" fill-rule="evenodd"/><path fill="#000000" fill-opacity="0.0" d="m1464.4512 488.85645l0 0c0 -25.770386 20.898071 -46.661407 46.677246 -46.661407l0 0c12.379517 0 24.252075 4.9160767 33.005737 13.666809c8.753662 8.750702 13.671387 20.619232 13.671387 32.9946l0 0c0 25.770386 -20.898071 46.661438 -46.677124 46.661438l0 0c-25.779175 0 -46.677246 -20.891052 -46.677246 -46.661438z" fill-rule="evenodd"/><path stroke="#676784" stroke-width="1.0" stroke-linejoin="round" stroke-linecap="butt" d="m1464.4512 488.85645l0 0c0 -25.770386 20.898071 -46.661407 46.677246 -46.661407l0 0c12.379517 0 24.252075 4.9160767 33.005737 13.666809c8.753662 8.750702 13.671387 20.619232 13.671387 32.9946l0 0c0 25.770386 -20.898071 46.661438 -46.677124 46.661438l0 0c-25.779175 0 -46.677246 -20.891052 -46.677246 -46.661438z" fill-rule="evenodd"/><path fill="#000000" fill-opacity="0.0" d="m442.41653 1510.7561l0 0c0 -25.770386 20.898071 -46.661377 46.677155 -46.661377l0 0c12.379547 0 24.252075 4.9160156 33.005737 13.666748c8.753662 8.750732 13.671448 20.619263 13.671448 32.99463l0 0c0 25.770386 -20.898071 46.661377 -46.677185 46.661377l0 0c-25.779083 0 -46.677155 -20.890991 -46.677155 -46.661377z" fill-rule="evenodd"/><path stroke="#676784" stroke-width="1.0" stroke-linejoin="round" stroke-linecap="butt" d="m442.41653 1510.7561l0 0c0 -25.770386 20.898071 -46.661377 46.677155 -46.661377l0 0c12.379547 0 24.252075 4.9160156 33.005737 13.666748c8.753662 8.750732 13.671448 20.619263 13.671448 32.99463l0 0c0 25.770386 -20.898071 46.661377 -46.677185 46.661377l0 0c-25.779083 0 -46.677155 -20.890991 -46.677155 -46.661377z" fill-rule="evenodd"/><path fill="#000000" fill-opacity="0.0" d="m1464.4507 1510.7561l0 0c0 -25.770386 20.898071 -46.661377 46.677124 -46.661377l0 0c12.379517 0 24.252075 4.9160156 33.005737 13.666748c8.753662 8.750732 13.671387 20.619263 13.671387 32.99463l0 0c0 25.770386 -20.898071 46.661377 -46.677124 46.661377l0 0c-25.779053 0 -46.677124 -20.890991 -46.677124 -46.661377z" fill-rule="evenodd"/><path stroke="#676784" stroke-width="1.0" stroke-linejoin="round" stroke-linecap="butt" d="m1464.4507 1510.7561l0 0c0 -25.770386 20.898071 -46.661377 46.677124 -46.661377l0 0c12.379517 0 24.252075 4.9160156 33.005737 13.666748c8.753662 8.750732 13.671387 20.619263 13.671387 32.99463l0 0c0 25.770386 -20.898071 46.661377 -46.677124 46.661377l0 0c-25.779053 0 -46.677124 -20.890991 -46.677124 -46.661377z" fill-rule="evenodd"/><g filter="url(#shadowFilter-g34ea7593cc0_3_211.1)"><use xlink:href="#g34ea7593cc0_3_211.1" transform="matrix(1.0 0.0 0.0 1.0 0.0 2.0)"/></g><defs><filter id="shadowFilter-g34ea7593cc0_3_211.1" filterUnits="userSpaceOnUse"><feGaussianBlur in="SourceAlpha" stdDeviation="36.5" result="blur"/><feComponentTransfer in="blur" color-interpolation-filters="sRGB"><feFuncR type="linear" slope="0" intercept="0.007843138"/><feFuncG type="linear" slope="0" intercept="0.3647059"/><feFuncB type="linear" slope="0" intercept="1.0"/><feFuncA type="linear" slope="0.31" intercept="0"/></feComponentTransfer></filter></defs><g id="g34ea7593cc0_3_211.1"><defs><radialGradient id="g34ea7593cc0_3_211.2" gradientUnits="userSpaceOnUse" gradientTransform="matrix(21.23056661187867 0.0 0.0 21.23056661187867 0.0 0.0)" spreadMethod="pad" cx="63.018794165771986" cy="63.01539857465177" fx="63.018794165771986" fy="63.01539857465177" r="21.230566024780273"><stop offset="0.0" stop-color="#0254ff" stop-opacity="0.039215688"/><stop offset="0.5" stop-color="#000bff" stop-opacity="0.09411765"/><stop offset="1.0" stop-color="#0203ff" stop-opacity="0.14901961"/></radialGradient></defs><path fill="url(#g34ea7593cc0_3_211.2)" d="m1337.9247 1497.2122l0 0c0 -88.01184 71.34778 -159.3595 159.35962 -159.3595l0 0c42.26477 0 82.79846 16.78955 112.684204 46.675293c29.885742 29.885742 46.675415 70.41943 46.675415 112.684204l0 0c0 88.01196 -71.34778 159.35962 -159.35962 159.35962l0 0c-88.01184 0 -159.35962 -71.34766 -159.35962 -159.35962z" fill-rule="evenodd"/><path stroke="#025dff" stroke-width="2.0" stroke-linejoin="round" stroke-linecap="butt" d="m1337.9247 1497.2122l0 0c0 -88.01184 71.34778 -159.3595 159.35962 -159.3595l0 0c42.26477 0 82.79846 16.78955 112.684204 46.675293c29.885742 29.885742 46.675415 70.41943 46.675415 112.684204l0 0c0 88.01196 -71.34778 159.35962 -159.35962 159.35962l0 0c-88.01184 0 -159.35962 -71.34766 -159.35962 -159.35962z" fill-rule="evenodd"/></g><g filter="url(#shadowFilter-g34ea7593cc0_3_211.3)"><use xlink:href="#g34ea7593cc0_3_211.3" transform="matrix(1.0 0.0 0.0 1.0 0.0 2.0)"/></g><defs><filter id="shadowFilter-g34ea7593cc0_3_211.3" filterUnits="userSpaceOnUse"><feGaussianBlur in="SourceAlpha" stdDeviation="36.5" result="blur"/><feComponentTransfer in="blur" color-interpolation-filters="sRGB"><feFuncR type="linear" slope="0" intercept="0.007843138"/><feFuncG type="linear" slope="0" intercept="0.3647059"/><feFuncB type="linear" slope="0" intercept="1.0"/><feFuncA type="linear" slope="0.31" intercept="0"/></feComponentTransfer></filter></defs><g id="g34ea7593cc0_3_211.3"><defs><radialGradient id="g34ea7593cc0_3_211.4" gradientUnits="userSpaceOnUse" gradientTransform="matrix(21.23056661187867 0.0 0.0 21.23056661187867 0.0 0.0)" spreadMethod="pad" cx="16.177411889249978" cy="63.01539857465177" fx="16.177411889249978" fy="63.01539857465177" r="21.230566024780273"><stop offset="0.0" stop-color="#0254ff" stop-opacity="0.039215688"/><stop offset="0.5" stop-color="#000bff" stop-opacity="0.09411765"/><stop offset="1.0" stop-color="#0203ff" stop-opacity="0.14901961"/></radialGradient></defs><path fill="url(#g34ea7593cc0_3_211.4)" d="m343.45563 1497.2122l0 0c0 -88.01184 71.34772 -159.3595 159.35959 -159.3595l0 0c42.2648 0 82.79849 16.78955 112.684235 46.675293c29.885742 29.885742 46.675354 70.41943 46.675354 112.684204l0 0c0 88.01196 -71.34772 159.35962 -159.35959 159.35962l0 0c-88.01187 0 -159.35959 -71.34766 -159.35959 -159.35962z" fill-rule="evenodd"/><path stroke="#025dff" stroke-width="2.0" stroke-linejoin="round" stroke-linecap="butt" d="m343.45563 1497.2122l0 0c0 -88.01184 71.34772 -159.3595 159.35959 -159.3595l0 0c42.2648 0 82.79849 16.78955 112.684235 46.675293c29.885742 29.885742 46.675354 70.41943 46.675354 112.684204l0 0c0 88.01196 -71.34772 159.35962 -159.35959 159.35962l0 0c-88.01187 0 -159.35959 -71.34766 -159.35959 -159.35962z" fill-rule="evenodd"/></g><g filter="url(#shadowFilter-g34ea7593cc0_3_211.5)"><use xlink:href="#g34ea7593cc0_3_211.5" transform="matrix(1.0 0.0 0.0 1.0 0.0 2.0)"/></g><defs><filter id="shadowFilter-g34ea7593cc0_3_211.5" filterUnits="userSpaceOnUse"><feGaussianBlur in="SourceAlpha" stdDeviation="36.5" result="blur"/><feComponentTransfer in="blur" color-interpolation-filters="sRGB"><feFuncR type="linear" slope="0" intercept="0.007843138"/><feFuncG type="linear" slope="0" intercept="0.3647059"/><feFuncB type="linear" slope="0" intercept="1.0"/><feFuncA type="linear" slope="0.31" intercept="0"/></feComponentTransfer></filter></defs><g id="g34ea7593cc0_3_211.5"><defs><radialGradient id="g34ea7593cc0_3_211.6" gradientUnits="userSpaceOnUse" gradientTransform="matrix(21.441497379583506 21.441497379583502 -21.441497379583502 21.441497379583506 0.0 0.0)" spreadMethod="pad" cx="53.43416730989934" cy="-3.7175199644314127" fx="53.43416730989934" fy="-3.7175199644314127" r="21.441497802734375"><stop offset="0.0" stop-color="#0254ff" stop-opacity="0.039215688"/><stop offset="0.5" stop-color="#000bff" stop-opacity="0.09411765"/><stop offset="1.0" stop-color="#0203ff" stop-opacity="0.14901961"/></radialGradient></defs><path fill="url(#g34ea7593cc0_3_211.6)" d="m1225.4177 1065.9994l431.24683 431.24683l-159.32678 159.32678l-431.24683 -431.24683z" fill-rule="evenodd"/><path stroke="#025dff" stroke-width="2.0" stroke-linejoin="round" stroke-linecap="butt" d="m1225.4177 1065.9994l431.24683 431.24683l-159.32678 159.32678l-431.24683 -431.24683z" fill-rule="evenodd"/></g><g filter="url(#shadowFilter-g34ea7593cc0_3_211.7)"><use xlink:href="#g34ea7593cc0_3_211.7" transform="matrix(1.0 0.0 0.0 1.0 0.0 2.0)"/></g><defs><filter id="shadowFilter-g34ea7593cc0_3_211.7" filterUnits="userSpaceOnUse"><feGaussianBlur in="SourceAlpha" stdDeviation="36.5" result="blur"/><feComponentTransfer in="blur" color-interpolation-filters="sRGB"><feFuncR type="linear" slope="0" intercept="0.007843138"/><feFuncG type="linear" slope="0" intercept="0.3647059"/><feFuncB type="linear" slope="0" intercept="1.0"/><feFuncA type="linear" slope="0.31" intercept="0"/></feComponentTransfer></filter></defs><g id="g34ea7593cc0_3_211.7"><defs><radialGradient id="g34ea7593cc0_3_211.8" gradientUnits="userSpaceOnUse" gradientTransform="matrix(21.23056661187867 0.0 0.0 21.23056661187867 0.0 0.0)" spreadMethod="pad" cx="63.018794165771986" cy="16.172473729488146" fx="63.018794165771986" fy="16.172473729488146" r="21.230566024780273"><stop offset="0.0" stop-color="#0254ff" stop-opacity="0.039215688"/><stop offset="0.5" stop-color="#000bff" stop-opacity="0.09411765"/><stop offset="1.0" stop-color="#0203ff" stop-opacity="0.14901961"/></radialGradient></defs><path fill="url(#g34ea7593cc0_3_211.8)" d="m1337.9247 502.71036l0 0c0 -88.01187 71.34778 -159.35959 159.35962 -159.35959l0 0c42.26477 0 82.79846 16.789642 112.684204 46.675354c29.885742 29.885712 46.675415 70.419464 46.675415 112.684235l0 0c0 88.01187 -71.34778 159.35959 -159.35962 159.35959l0 0c-88.01184 0 -159.35962 -71.34772 -159.35962 -159.35959z" fill-rule="evenodd"/><path stroke="#025dff" stroke-width="2.0" stroke-linejoin="round" stroke-linecap="butt" d="m1337.9247 502.71036l0 0c0 -88.01187 71.34778 -159.35959 159.35962 -159.35959l0 0c42.26477 0 82.79846 16.789642 112.684204 46.675354c29.885742 29.885712 46.675415 70.419464 46.675415 112.684235l0 0c0 88.01187 -71.34778 159.35959 -159.35962 159.35959l0 0c-88.01184 0 -159.35962 -71.34772 -159.35962 -159.35959z" fill-rule="evenodd"/></g><g filter="url(#shadowFilter-g34ea7593cc0_3_211.9)"><use xlink:href="#g34ea7593cc0_3_211.9" transform="matrix(1.0 0.0 0.0 1.0 0.0 2.0)"/></g><defs><filter id="shadowFilter-g34ea7593cc0_3_211.9" filterUnits="userSpaceOnUse"><feGaussianBlur in="SourceAlpha" stdDeviation="36.5" result="blur"/><feComponentTransfer in="blur" color-interpolation-filters="sRGB"><feFuncR type="linear" slope="0" intercept="0.007843138"/><feFuncG type="linear" slope="0" intercept="0.3647059"/><feFuncB type="linear" slope="0" intercept="1.0"/><feFuncA type="linear" slope="0.31" intercept="0"/></feComponentTransfer></filter></defs><g id="g34ea7593cc0_3_211.9"><defs><radialGradient id="g34ea7593cc0_3_211.10" gradientUnits="userSpaceOnUse" gradientTransform="matrix(34.128435279095115 -34.12843527936631 34.12843527936631 34.128435279095115 0.0 0.0)" spreadMethod="pad" cx="-16.902546123445642" cy="26.96718483210601" fx="-16.902546123445642" fy="26.96718483210601" r="34.12843704223633"><stop offset="0.0" stop-color="#0254ff" stop-opacity="0.039215688"/><stop offset="0.5" stop-color="#000bff" stop-opacity="0.09411765"/><stop offset="1.0" stop-color="#0203ff" stop-opacity="0.14901961"/></radialGradient></defs><path fill="url(#g34ea7593cc0_3_211.10)" d="m343.49036 1497.2053l1153.8014 -1153.8014l159.32678 159.32684l-1153.8013 1153.8014z" fill-rule="evenodd"/><path stroke="#025dff" stroke-width="2.0" stroke-linejoin="round" stroke-linecap="butt" d="m343.49036 1497.2053l1153.8014 -1153.8014l159.32678 159.32684l-1153.8013 1153.8014z" fill-rule="evenodd"/></g><g filter="url(#shadowFilter-g34ea7593cc0_3_211.11)"><use xlink:href="#g34ea7593cc0_3_211.11" transform="matrix(1.0 0.0 0.0 1.0 0.0 2.0)"/></g><defs><filter id="shadowFilter-g34ea7593cc0_3_211.11" filterUnits="userSpaceOnUse"><feGaussianBlur in="SourceAlpha" stdDeviation="36.5" result="blur"/><feComponentTransfer in="blur" color-interpolation-filters="sRGB"><feFuncR type="linear" slope="0" intercept="0.007843138"/><feFuncG type="linear" slope="0" intercept="0.3647059"/><feFuncB type="linear" slope="0" intercept="1.0"/><feFuncA type="linear" slope="0.31" intercept="0"/></feComponentTransfer></filter></defs><g id="g34ea7593cc0_3_211.11"><defs><radialGradient id="g34ea7593cc0_3_211.12" gradientUnits="userSpaceOnUse" gradientTransform="matrix(21.23056661187867 0.0 0.0 21.23056661187867 0.0 0.0)" spreadMethod="pad" cx="16.177411889249978" cy="16.172473729488146" fx="16.177411889249978" fy="16.172473729488146" r="21.230566024780273"><stop offset="0.0" stop-color="#0254ff" stop-opacity="0.039215688"/><stop offset="0.5" stop-color="#000bff" stop-opacity="0.09411765"/><stop offset="1.0" stop-color="#0203ff" stop-opacity="0.14901961"/></radialGradient></defs><path fill="url(#g34ea7593cc0_3_211.12)" d="m343.45563 502.71036l0 0c0 -88.01187 71.34772 -159.35959 159.35959 -159.35959l0 0c42.2648 0 82.79849 16.789642 112.684235 46.675354c29.885742 29.885712 46.675354 70.419464 46.675354 112.684235l0 0c0 88.01187 -71.34772 159.35959 -159.35959 159.35959l0 0c-88.01187 0 -159.35959 -71.34772 -159.35959 -159.35959z" fill-rule="evenodd"/><path stroke="#025dff" stroke-width="2.0" stroke-linejoin="round" stroke-linecap="butt" d="m343.45563 502.71036l0 0c0 -88.01187 71.34772 -159.35959 159.35959 -159.35959l0 0c42.2648 0 82.79849 16.789642 112.684235 46.675354c29.885742 29.885712 46.675354 70.419464 46.675354 112.684235l0 0c0 88.01187 -71.34772 159.35959 -159.35959 159.35959l0 0c-88.01187 0 -159.35959 -71.34772 -159.35959 -159.35959z" fill-rule="evenodd"/></g><g filter="url(#shadowFilter-g34ea7593cc0_3_211.13)"><use xlink:href="#g34ea7593cc0_3_211.13" transform="matrix(1.0 0.0 0.0 1.0 0.0 2.0)"/></g><defs><filter id="shadowFilter-g34ea7593cc0_3_211.13" filterUnits="userSpaceOnUse"><feGaussianBlur in="SourceAlpha" stdDeviation="36.5" result="blur"/><feComponentTransfer in="blur" color-interpolation-filters="sRGB"><feFuncR type="linear" slope="0" intercept="0.007843138"/><feFuncG type="linear" slope="0" intercept="0.3647059"/><feFuncB type="linear" slope="0" intercept="1.0"/><feFuncA type="linear" slope="0.31" intercept="0"/></feComponentTransfer></filter></defs><g id="g34ea7593cc0_3_211.13"><defs><radialGradient id="g34ea7593cc0_3_211.14" gradientUnits="userSpaceOnUse" gradientTransform="matrix(22.445062706417488 0.0 0.0 22.445062706417488 0.0 0.0)" spreadMethod="pad" cx="22.40188587664508" cy="15.297440418852014" fx="22.40188587664508" fy="15.297440418852014" r="22.4450626373291"><stop offset="0.0" stop-color="#0254ff" stop-opacity="0.039215688"/><stop offset="0.5" stop-color="#000bff" stop-opacity="0.09411765"/><stop offset="1.0" stop-color="#0203ff" stop-opacity="0.14901961"/></radialGradient></defs><path fill="url(#g34ea7593cc0_3_211.14)" d="m502.81174 343.35202l450.56906 0l0 225.35l-450.56906 0z" fill-rule="evenodd"/><path stroke="#025dff" stroke-width="2.0" stroke-linejoin="round" stroke-linecap="butt" d="m502.81174 343.35202l450.56906 0l0 225.35l-450.56906 0z" fill-rule="evenodd"/></g><g filter="url(#shadowFilter-g34ea7593cc0_3_211.15)"><use xlink:href="#g34ea7593cc0_3_211.15" transform="matrix(1.0 0.0 0.0 1.0 0.0 2.0)"/></g><defs><filter id="shadowFilter-g34ea7593cc0_3_211.15" filterUnits="userSpaceOnUse"><feGaussianBlur in="SourceAlpha" stdDeviation="36.5" result="blur"/><feComponentTransfer in="blur" color-interpolation-filters="sRGB"><feFuncR type="linear" slope="0" intercept="0.007843138"/><feFuncG type="linear" slope="0" intercept="0.3647059"/><feFuncB type="linear" slope="0" intercept="1.0"/><feFuncA type="linear" slope="0.31" intercept="0"/></feComponentTransfer></filter></defs><g id="g34ea7593cc0_3_211.15"><defs><radialGradient id="g34ea7593cc0_3_211.16" gradientUnits="userSpaceOnUse" gradientTransform="matrix(22.445062706417488 0.0 0.0 22.445062706417488 0.0 0.0)" spreadMethod="pad" cx="46.6353595512343" cy="15.297440418852014" fx="46.6353595512343" fy="15.297440418852014" r="22.4450626373291"><stop offset="0.0" stop-color="#0254ff" stop-opacity="0.039215688"/><stop offset="0.5" stop-color="#000bff" stop-opacity="0.09411765"/><stop offset="1.0" stop-color="#0203ff" stop-opacity="0.14901961"/></radialGradient></defs><path fill="url(#g34ea7593cc0_3_211.16)" d="m1046.7335 343.35202l450.5691 0l0 225.35l-450.5691 0z" fill-rule="evenodd"/><path stroke="#025dff" stroke-width="2.0" stroke-linejoin="round" stroke-linecap="butt" d="m1046.7335 343.35202l450.5691 0l0 225.35l-450.5691 0z" fill-rule="evenodd"/></g><g filter="url(#shadowFilter-g34ea7593cc0_3_211.17)"><use xlink:href="#g34ea7593cc0_3_211.17" transform="matrix(1.0 0.0 0.0 1.0 0.0 2.0)"/></g><defs><filter id="shadowFilter-g34ea7593cc0_3_211.17" filterUnits="userSpaceOnUse"><feGaussianBlur in="SourceAlpha" stdDeviation="36.5" result="blur"/><feComponentTransfer in="blur" color-interpolation-filters="sRGB"><feFuncR type="linear" slope="0" intercept="0.007843138"/><feFuncG type="linear" slope="0" intercept="0.3647059"/><feFuncB type="linear" slope="0" intercept="1.0"/><feFuncA type="linear" slope="0.31" intercept="0"/></feComponentTransfer></filter></defs><g id="g34ea7593cc0_3_211.17"><defs><radialGradient id="g34ea7593cc0_3_211.18" gradientUnits="userSpaceOnUse" gradientTransform="matrix(0.0 22.445062706417488 -22.445062706417488 0.0 0.0 0.0)" spreadMethod="pad" cx="22.39803229537602" cy="-25.341122608518546" fx="22.39803229537602" fy="-25.341122608518546" r="22.4450626373291"><stop offset="0.0" stop-color="#0254ff" stop-opacity="0.039215688"/><stop offset="0.5" stop-color="#000bff" stop-opacity="0.09411765"/><stop offset="1.0" stop-color="#0203ff" stop-opacity="0.14901961"/></radialGradient></defs><path fill="url(#g34ea7593cc0_3_211.18)" d="m568.7831 502.72525l0 450.56906l-225.35004 0l0 -450.56906z" fill-rule="evenodd"/><path stroke="#025dff" stroke-width="2.0" stroke-linejoin="round" stroke-linecap="butt" d="m568.7831 502.72525l0 450.56906l-225.35004 0l0 -450.56906z" fill-rule="evenodd"/></g><g filter="url(#shadowFilter-g34ea7593cc0_3_211.19)"><use xlink:href="#g34ea7593cc0_3_211.19" transform="matrix(1.0 0.0 0.0 1.0 0.0 2.0)"/></g><defs><filter id="shadowFilter-g34ea7593cc0_3_211.19" filterUnits="userSpaceOnUse"><feGaussianBlur in="SourceAlpha" stdDeviation="36.5" result="blur"/><feComponentTransfer in="blur" color-interpolation-filters="sRGB"><feFuncR type="linear" slope="0" intercept="0.007843138"/><feFuncG type="linear" slope="0" intercept="0.3647059"/><feFuncB type="linear" slope="0" intercept="1.0"/><feFuncA type="linear" slope="0.31" intercept="0"/></feComponentTransfer></filter></defs><g id="g34ea7593cc0_3_211.19"><defs><radialGradient id="g34ea7593cc0_3_211.20" gradientUnits="userSpaceOnUse" gradientTransform="matrix(0.0 22.445062706417488 -22.445062706417488 0.0 0.0 0.0)" spreadMethod="pad" cx="22.39803229537602" cy="-73.80977224182581" fx="22.39803229537602" fy="-73.80977224182581" r="22.4450626373291"><stop offset="0.0" stop-color="#0254ff" stop-opacity="0.039215688"/><stop offset="0.5" stop-color="#000bff" stop-opacity="0.09411765"/><stop offset="1.0" stop-color="#0203ff" stop-opacity="0.14901961"/></radialGradient></defs><path fill="url(#g34ea7593cc0_3_211.20)" d="m1656.6649 502.72525l0 450.56906l-225.34998 0l0 -450.56906z" fill-rule="evenodd"/><path stroke="#025dff" stroke-width="2.0" stroke-linejoin="round" stroke-linecap="butt" d="m1656.6649 502.72525l0 450.56906l-225.34998 0l0 -450.56906z" fill-rule="evenodd"/></g><g filter="url(#shadowFilter-g34ea7593cc0_3_211.21)"><use xlink:href="#g34ea7593cc0_3_211.21" transform="matrix(1.0 0.0 0.0 1.0 0.0 2.0)"/></g><defs><filter id="shadowFilter-g34ea7593cc0_3_211.21" filterUnits="userSpaceOnUse"><feGaussianBlur in="SourceAlpha" stdDeviation="36.5" result="blur"/><feComponentTransfer in="blur" color-interpolation-filters="sRGB"><feFuncR type="linear" slope="0" intercept="0.007843138"/><feFuncG type="linear" slope="0" intercept="0.3647059"/><feFuncB type="linear" slope="0" intercept="1.0"/><feFuncA type="linear" slope="0.31" intercept="0"/></feComponentTransfer></filter></defs><g id="g34ea7593cc0_3_211.21"><defs><radialGradient id="g34ea7593cc0_3_211.22" gradientUnits="userSpaceOnUse" gradientTransform="matrix(0.0 22.445062706417488 -22.445062706417488 0.0 0.0 0.0)" spreadMethod="pad" cx="46.63077641962431" cy="-25.341122608518546" fx="46.63077641962431" fy="-25.341122608518546" r="22.4450626373291"><stop offset="0.0" stop-color="#0254ff" stop-opacity="0.039215688"/><stop offset="0.5" stop-color="#000bff" stop-opacity="0.09411765"/><stop offset="1.0" stop-color="#0203ff" stop-opacity="0.14901961"/></radialGradient></defs><path fill="url(#g34ea7593cc0_3_211.22)" d="m568.7831 1046.6307l0 450.5691l-225.35004 0l0 -450.5691z" fill-rule="evenodd"/><path stroke="#025dff" stroke-width="2.0" stroke-linejoin="round" stroke-linecap="butt" d="m568.7831 1046.6307l0 450.5691l-225.35004 0l0 -450.5691z" fill-rule="evenodd"/></g><g filter="url(#shadowFilter-g34ea7593cc0_3_211.23)"><use xlink:href="#g34ea7593cc0_3_211.23" transform="matrix(1.0 0.0 0.0 1.0 0.0 2.0)"/></g><defs><filter id="shadowFilter-g34ea7593cc0_3_211.23" filterUnits="userSpaceOnUse"><feGaussianBlur in="SourceAlpha" stdDeviation="36.5" result="blur"/><feComponentTransfer in="blur" color-interpolation-filters="sRGB"><feFuncR type="linear" slope="0" intercept="0.007843138"/><feFuncG type="linear" slope="0" intercept="0.3647059"/><feFuncB type="linear" slope="0" intercept="1.0"/><feFuncA type="linear" slope="0.31" intercept="0"/></feComponentTransfer></filter></defs><g id="g34ea7593cc0_3_211.23"><defs><radialGradient id="g34ea7593cc0_3_211.24" gradientUnits="userSpaceOnUse" gradientTransform="matrix(22.445062706417488 0.0 0.0 22.445062706417488 0.0 0.0)" spreadMethod="pad" cx="22.40188587664508" cy="63.76426617630697" fx="22.40188587664508" fy="63.76426617630697" r="22.4450626373291"><stop offset="0.0" stop-color="#0254ff" stop-opacity="0.039215688"/><stop offset="0.5" stop-color="#000bff" stop-opacity="0.09411765"/><stop offset="1.0" stop-color="#0203ff" stop-opacity="0.14901961"/></radialGradient></defs><path fill="url(#g34ea7593cc0_3_211.24)" d="m502.81174 1431.193l450.56906 0l0 225.34998l-450.56906 0z" fill-rule="evenodd"/><path stroke="#025dff" stroke-width="2.0" stroke-linejoin="round" stroke-linecap="butt" d="m502.81174 1431.193l450.56906 0l0 225.34998l-450.56906 0z" fill-rule="evenodd"/></g><g filter="url(#shadowFilter-g34ea7593cc0_3_211.25)"><use xlink:href="#g34ea7593cc0_3_211.25" transform="matrix(1.0 0.0 0.0 1.0 0.0 2.0)"/></g><defs><filter id="shadowFilter-g34ea7593cc0_3_211.25" filterUnits="userSpaceOnUse"><feGaussianBlur in="SourceAlpha" stdDeviation="36.5" result="blur"/><feComponentTransfer in="blur" color-interpolation-filters="sRGB"><feFuncR type="linear" slope="0" intercept="0.007843138"/><feFuncG type="linear" slope="0" intercept="0.3647059"/><feFuncB type="linear" slope="0" intercept="1.0"/><feFuncA type="linear" slope="0.31" intercept="0"/></feComponentTransfer></filter></defs><g id="g34ea7593cc0_3_211.25"><defs><radialGradient id="g34ea7593cc0_3_211.26" gradientUnits="userSpaceOnUse" gradientTransform="matrix(22.445062706417488 0.0 0.0 22.445062706417488 0.0 0.0)" spreadMethod="pad" cx="46.6353595512343" cy="63.76426617630697" fx="46.6353595512343" fy="63.76426617630697" r="22.4450626373291"><stop offset="0.0" stop-color="#0254ff" stop-opacity="0.039215688"/><stop offset="0.5" stop-color="#000bff" stop-opacity="0.09411765"/><stop offset="1.0" stop-color="#0203ff" stop-opacity="0.14901961"/></radialGradient></defs><path fill="url(#g34ea7593cc0_3_211.26)" d="m1046.7335 1431.193l450.5691 0l0 225.34998l-450.5691 0z" fill-rule="evenodd"/><path stroke="#025dff" stroke-width="2.0" stroke-linejoin="round" stroke-linecap="butt" d="m1046.7335 1431.193l450.5691 0l0 225.34998l-450.5691 0z" fill-rule="evenodd"/></g><g filter="url(#shadowFilter-g34ea7593cc0_3_211.27)"><use xlink:href="#g34ea7593cc0_3_211.27" transform="matrix(1.0 0.0 0.0 1.0 0.0 2.0)"/></g><defs><filter id="shadowFilter-g34ea7593cc0_3_211.27" filterUnits="userSpaceOnUse"><feGaussianBlur in="SourceAlpha" stdDeviation="36.5" result="blur"/><feComponentTransfer in="blur" color-interpolation-filters="sRGB"><feFuncR type="linear" slope="0" intercept="0.007843138"/><feFuncG type="linear" slope="0" intercept="0.3647059"/><feFuncB type="linear" slope="0" intercept="1.0"/><feFuncA type="linear" slope="0.31" intercept="0"/></feComponentTransfer></filter></defs><g id="g34ea7593cc0_3_211.27"><defs><radialGradient id="g34ea7593cc0_3_211.28" gradientUnits="userSpaceOnUse" gradientTransform="matrix(0.0 22.445062706417488 -22.445062706417488 0.0 0.0 0.0)" spreadMethod="pad" cx="46.63077641962431" cy="-73.80977224182581" fx="46.63077641962431" fy="-73.80977224182581" r="22.4450626373291"><stop offset="0.0" stop-color="#0254ff" stop-opacity="0.039215688"/><stop offset="0.5" stop-color="#000bff" stop-opacity="0.09411765"/><stop offset="1.0" stop-color="#0203ff" stop-opacity="0.14901961"/></radialGradient></defs><path fill="url(#g34ea7593cc0_3_211.28)" d="m1656.6649 1046.6307l0 450.5691l-225.34998 0l0 -450.5691z" fill-rule="evenodd"/><path stroke="#025dff" stroke-width="2.0" stroke-linejoin="round" stroke-linecap="butt" d="m1656.6649 1046.6307l0 450.5691l-225.34998 0l0 -450.5691z" fill-rule="evenodd"/></g><g filter="url(#shadowFilter-g34ea7593cc0_3_211.29)"><use xlink:href="#g34ea7593cc0_3_211.29" transform="matrix(1.0 0.0 0.0 1.0 0.0 2.0)"/></g><defs><filter id="shadowFilter-g34ea7593cc0_3_211.29" filterUnits="userSpaceOnUse"><feGaussianBlur in="SourceAlpha" stdDeviation="36.5" result="blur"/><feComponentTransfer in="blur" color-interpolation-filters="sRGB"><feFuncR type="linear" slope="0" intercept="0.007843138"/><feFuncG type="linear" slope="0" intercept="0.3647059"/><feFuncB type="linear" slope="0" intercept="1.0"/><feFuncA type="linear" slope="0.31" intercept="0"/></feComponentTransfer></filter></defs><g id="g34ea7593cc0_3_211.29"><defs><radialGradient id="g34ea7593cc0_3_211.30" gradientUnits="userSpaceOnUse" gradientTransform="matrix(21.441497379640474 21.441497379412592 -21.441497379412592 21.441497379640474 0.0 0.0)" spreadMethod="pad" cx="19.731972520685485" cy="-3.717138115931451" fx="19.731972520685485" fy="-3.717138115931451" r="21.441497802734375"><stop offset="0.0" stop-color="#0254ff" stop-opacity="0.039215688"/><stop offset="0.5" stop-color="#000bff" stop-opacity="0.09411765"/><stop offset="1.0" stop-color="#0203ff" stop-opacity="0.14901961"/></radialGradient></defs><path fill="url(#g34ea7593cc0_3_211.30)" d="m502.78406 343.38202l431.24683 431.24683l-159.32684 159.32684l-431.24683 -431.24683z" fill-rule="evenodd"/><path stroke="#025dff" stroke-width="2.0" stroke-linejoin="round" stroke-linecap="butt" d="m502.78406 343.38202l431.24683 431.24683l-159.32684 159.32684l-431.24683 -431.24683z" fill-rule="evenodd"/></g></g></svg>